<?xml version="1.0" standalone="no"?>
<!DOCTYPE svg PUBLIC "-//W3C//DTD SVG 20010904//EN"
 "http://www.w3.org/TR/2001/REC-SVG-20010904/DTD/svg10.dtd">
<svg version="1.0" xmlns="http://www.w3.org/2000/svg"
 width="3495.000000pt" height="3495.000000pt" viewBox="0 0 3495.000000 3495.000000"
 preserveAspectRatio="xMidYMid meet">
<metadata>
Created by potrace 1.11, written by Peter Selinger 2001-2013
</metadata>
<g transform="translate(0.000000,3495.000000) scale(0.100000,-0.100000)"
fill="#000000" stroke="none">
<path d="M22308 32285 c-2 -1 -55 -6 -118 -9 -181 -10 -289 -24 -560 -71 -14
-2 -92 -15 -175 -29 -82 -14 -163 -27 -180 -30 -16 -2 -73 -12 -125 -21 -126
-21 -130 -22 -240 -39 -52 -9 -104 -17 -115 -20 -11 -2 -40 -7 -65 -11 -25 -4
-54 -9 -65 -11 -10 -2 -35 -6 -55 -9 -19 -3 -168 -28 -330 -56 -162 -28 -308
-53 -325 -55 -16 -3 -41 -7 -55 -10 -14 -3 -41 -7 -60 -10 -19 -2 -57 -9 -85
-14 -27 -5 -63 -12 -80 -14 -36 -6 -202 -34 -230 -40 -11 -2 -40 -7 -65 -11
-52 -9 -76 -13 -110 -20 -14 -3 -42 -8 -64 -11 -21 -3 -48 -8 -60 -10 -29 -6
-146 -26 -172 -29 -11 -2 -45 -8 -75 -14 -133 -26 -377 -69 -436 -76 -26 -3
-57 -8 -68 -10 -29 -6 -152 -19 -310 -32 -180 -14 -749 -8 -945 11 -19 2 -78
7 -130 11 -52 4 -108 8 -125 11 -16 2 -106 6 -200 9 -167 5 -201 8 -287 20
-91 13 -238 39 -338 59 -41 8 -86 17 -100 20 -76 14 -651 135 -670 141 -8 2
-28 7 -45 9 -16 3 -109 22 -205 41 -96 20 -193 38 -214 41 -22 3 -43 7 -46 9
-4 2 -29 7 -56 11 -27 3 -51 8 -54 9 -5 3 -201 39 -270 49 -19 3 -44 7 -55 10
-11 2 -56 9 -100 16 -44 7 -87 13 -95 15 -24 4 -91 14 -140 20 -25 4 -56 8
-70 10 -61 9 -109 16 -155 20 -27 3 -61 7 -75 10 -14 2 -50 7 -80 10 -30 3
-71 8 -90 10 -228 26 -372 38 -595 50 -49 2 -117 7 -150 11 -33 3 -78 8 -100
10 -114 13 -671 11 -810 -2 -208 -19 -478 -61 -630 -99 -11 -3 -29 -7 -40 -9
-116 -24 -475 -135 -570 -176 -11 -5 -76 -32 -145 -60 -380 -158 -783 -399
-1135 -679 -38 -31 -72 -58 -75 -61 -3 -3 -39 -34 -80 -70 -89 -76 -300 -287
-350 -347 -19 -24 -42 -43 -51 -43 -9 0 -23 -10 -32 -22 -8 -13 -25 -34 -37
-48 -78 -88 -231 -313 -282 -416 l-31 -63 74 -73 c41 -41 108 -111 149 -157
41 -46 84 -94 95 -105 11 -12 49 -55 85 -96 35 -41 67 -77 70 -80 3 -3 30 -34
60 -70 30 -36 57 -67 60 -70 3 -3 30 -34 60 -70 30 -35 60 -70 65 -76 6 -6 30
-35 55 -65 25 -29 71 -83 102 -120 31 -37 139 -165 239 -285 100 -121 198
-239 219 -264 21 -25 77 -92 125 -150 48 -58 94 -114 103 -125 345 -415 350
-423 792 -1030 156 -214 328 -449 382 -522 54 -73 162 -224 239 -335 77 -112
145 -210 152 -219 7 -8 17 -23 22 -31 6 -9 48 -72 94 -140 239 -350 514 -758
781 -1158 101 -151 188 -279 192 -285 15 -19 121 -180 138 -210 9 -16 81 -142
160 -280 79 -137 151 -263 160 -280 10 -16 57 -97 105 -180 48 -82 97 -166
107 -185 60 -104 146 -244 192 -310 29 -41 73 -109 98 -150 76 -125 432 -763
616 -1101 39 -72 80 -174 177 -444 56 -157 126 -357 129 -370 2 -5 8 -28 14
-50 6 -22 13 -58 16 -80 8 -59 16 -105 26 -145 5 -19 12 -57 16 -85 3 -27 7
-52 9 -55 2 -3 6 -34 10 -70 4 -36 9 -67 10 -70 17 -28 26 -427 13 -530 -14
-108 -39 -218 -68 -304 -42 -125 -127 -281 -131 -238 0 4 -2 25 -4 47 -3 22
-7 65 -9 95 -7 84 -16 172 -21 207 -3 18 -7 70 -10 115 -11 182 -16 259 -19
276 -2 9 -7 49 -11 87 -3 39 -8 84 -10 100 -2 17 -7 57 -10 90 -3 33 -8 74
-10 90 -3 17 -7 59 -10 95 -3 36 -7 75 -9 86 -2 12 -7 37 -10 55 -14 89 -83
310 -143 459 -66 166 -112 260 -280 570 -16 30 -108 183 -203 340 -95 157
-180 297 -189 312 -9 15 -38 64 -66 109 -27 46 -57 95 -65 109 -9 14 -67 111
-130 215 -62 105 -119 199 -124 210 -12 20 -670 1122 -864 1445 -96 160 -149
240 -417 635 -49 72 -131 193 -183 270 -115 169 -283 417 -368 542 -55 80
-133 187 -474 648 -37 50 -113 153 -170 230 -57 77 -196 259 -309 405 -207
268 -412 532 -434 560 -7 8 -91 116 -187 240 -138 179 -481 612 -555 702 -8
10 -55 70 -104 135 -101 133 -102 134 -239 281 -163 174 -200 213 -276 292
-40 41 -106 118 -148 170 -114 143 -414 439 -737 726 -25 21 -52 46 -61 54 -9
8 -50 44 -91 80 -41 36 -85 75 -99 88 -14 13 -77 57 -140 99 -63 42 -126 83
-140 92 -14 10 -61 36 -105 58 -216 111 -374 107 -626 -17 -159 -78 -318 -192
-467 -335 -41 -38 -81 -74 -90 -79 -50 -27 -215 -183 -331 -311 -360 -402
-856 -1084 -1061 -1460 -78 -144 -104 -190 -278 -515 -40 -75 -94 -178 -180
-340 -70 -134 -147 -280 -179 -340 -36 -67 -129 -244 -213 -405 -34 -66 -84
-161 -111 -211 -26 -50 -77 -156 -112 -235 -123 -275 -199 -444 -233 -517 -19
-41 -34 -75 -34 -77 0 -2 -13 -32 -29 -67 -16 -35 -81 -178 -144 -318 -63
-140 -126 -280 -140 -310 -40 -89 -216 -506 -263 -625 -25 -60 -49 -119 -54
-130 -109 -231 -770 -2019 -825 -2235 -2 -8 -38 -132 -80 -275 -77 -262 -257
-888 -300 -1045 -13 -47 -40 -143 -59 -215 -20 -71 -51 -184 -70 -250 -31
-109 -143 -545 -152 -588 -2 -10 -6 -27 -9 -37 -3 -10 -7 -27 -9 -37 -2 -10
-22 -101 -45 -203 -37 -171 -105 -503 -116 -574 -3 -17 -10 -53 -15 -81 -14
-75 -73 -426 -85 -510 -4 -22 -8 -51 -10 -65 -5 -28 -23 -165 -30 -220 -8 -71
-17 -145 -20 -160 -2 -8 -6 -42 -9 -75 -4 -33 -9 -78 -12 -100 -3 -22 -7 -56
-9 -75 -2 -19 -8 -71 -14 -115 -14 -103 -23 -174 -27 -205 -1 -14 -9 -56 -17
-95 -9 -38 -18 -101 -22 -140 -3 -38 -8 -88 -10 -110 -5 -45 -12 -133 -19
-245 -5 -67 -8 -120 -21 -325 -2 -33 -6 -121 -10 -195 -3 -74 -8 -169 -10
-210 -14 -280 -18 -463 -18 -905 0 -439 6 -691 18 -775 2 -14 7 -71 10 -128 4
-56 9 -122 10 -145 2 -23 7 -80 10 -127 3 -47 8 -105 10 -130 2 -25 7 -83 11
-130 11 -135 11 -140 27 -240 31 -187 42 -280 63 -525 18 -223 48 -383 125
-675 55 -210 177 -622 244 -825 21 -63 152 -473 176 -552 6 -17 12 -44 15 -60
6 -34 62 -165 142 -334 92 -194 159 -349 172 -399 15 -57 40 -112 103 -225 27
-49 61 -110 74 -135 176 -316 698 -1176 771 -1267 106 -133 341 -403 487 -558
11 -12 69 -77 130 -146 131 -149 268 -287 430 -433 66 -60 138 -125 160 -145
38 -35 207 -178 249 -211 10 -8 40 -33 66 -55 26 -22 58 -49 71 -60 13 -11 67
-56 119 -100 52 -44 100 -83 105 -88 36 -29 228 -157 235 -157 4 0 10 -4 12
-8 4 -12 379 -262 453 -303 138 -76 325 -167 400 -193 154 -55 208 -42 207 48
-1 41 -25 95 -158 365 -479 965 -744 1502 -767 1551 -14 30 -66 141 -117 245
-51 105 -116 240 -145 300 -89 187 -246 512 -390 810 -158 326 -225 466 -225
470 0 3 -21 37 -47 77 -77 119 -247 512 -360 833 -13 39 -30 84 -38 100 -7 17
-20 55 -30 85 -10 30 -20 60 -24 65 -3 6 -6 12 -7 15 0 3 -3 12 -7 20 -37 91
-390 1131 -512 1510 -24 74 -66 200 -93 280 -42 124 -124 420 -139 500 -2 14
-10 53 -18 86 -8 34 -16 74 -19 88 -3 14 -12 63 -21 108 -10 46 -18 92 -20
103 -1 11 -12 76 -24 145 -11 69 -23 143 -26 165 -3 22 -10 63 -15 90 -5 28
-12 75 -16 105 -3 30 -8 64 -10 75 -2 11 -6 40 -9 65 -3 25 -7 56 -9 70 -3 14
-8 48 -11 75 -3 28 -11 86 -16 130 -5 44 -12 103 -14 130 -3 28 -7 64 -10 80
-8 52 -32 271 -40 370 -2 22 -6 65 -9 95 -3 30 -8 80 -11 111 -4 62 -14 167
-21 239 -5 61 -12 149 -19 245 -3 44 -8 103 -10 130 -2 28 -7 95 -10 150 -3
55 -8 129 -10 165 -21 314 -21 791 0 1010 2 19 6 81 10 136 3 56 8 115 10 131
2 16 6 63 9 104 8 102 16 187 21 229 2 19 7 60 10 90 7 78 16 159 20 200 2 19
7 60 10 90 3 30 10 89 15 130 8 70 12 105 25 213 5 44 33 271 40 322 2 17 7
53 10 80 3 28 7 61 10 75 2 14 7 48 10 75 3 28 8 64 10 80 3 17 14 100 25 185
12 85 22 164 24 175 7 42 15 102 21 150 3 28 10 77 15 110 5 33 12 83 15 110
4 28 8 57 10 65 3 8 7 35 10 60 9 75 15 122 25 180 5 30 12 79 15 109 4 30 8
61 10 70 3 18 16 114 21 148 3 26 14 98 20 128 3 11 7 36 10 55 3 19 7 42 9
50 2 8 7 30 10 48 3 18 21 106 41 195 20 89 38 172 40 185 2 12 23 98 45 190
23 92 43 176 45 187 1 11 21 94 44 185 23 91 43 172 45 180 3 14 55 215 132
510 19 74 36 142 38 150 2 8 25 92 51 185 25 94 53 195 61 225 16 62 16 63 38
145 9 33 18 67 20 75 16 66 99 360 128 455 26 88 207 508 352 820 20 44 56
123 80 175 23 52 59 131 80 175 20 44 75 163 122 265 47 102 116 250 154 329
38 79 69 145 69 146 0 2 31 68 68 147 38 78 91 190 118 248 49 105 92 178 549
935 254 419 348 575 376 623 9 15 80 133 159 262 78 129 150 249 160 265 88
152 163 262 252 370 15 18 139 175 221 280 18 22 37 47 44 55 7 8 83 105 169
215 86 110 162 206 170 214 11 12 27 1 106 -66 51 -44 104 -88 117 -99 13 -10
42 -35 65 -54 23 -19 66 -55 96 -80 29 -25 70 -59 89 -76 20 -17 159 -134 310
-260 151 -126 389 -326 530 -444 141 -118 336 -282 433 -363 193 -161 208
-176 283 -258 28 -30 97 -106 155 -168 58 -63 112 -122 120 -131 14 -16 159
-174 225 -245 17 -17 71 -76 120 -130 50 -54 99 -108 110 -120 11 -11 65 -70
120 -130 55 -61 125 -137 156 -170 30 -33 78 -85 105 -115 27 -30 56 -61 65
-70 9 -8 72 -87 139 -175 146 -189 205 -265 223 -285 7 -8 45 -55 83 -105 57
-74 126 -163 307 -395 7 -8 28 -35 47 -60 19 -25 40 -52 47 -60 176 -222 273
-348 312 -405 19 -28 38 -52 41 -55 3 -3 23 -32 45 -65 22 -33 45 -65 50 -71
6 -6 61 -83 123 -170 184 -258 362 -508 378 -529 8 -11 212 -297 454 -635 241
-338 442 -619 447 -625 33 -40 443 -622 443 -629 0 -2 34 -62 77 -133 42 -70
84 -141 93 -158 25 -45 90 -158 100 -175 23 -37 174 -308 240 -430 40 -74 86
-159 102 -187 75 -138 219 -437 246 -513 53 -148 90 -293 107 -420 3 -25 8
-56 10 -70 5 -28 11 -87 20 -175 3 -33 8 -71 10 -85 3 -14 7 -54 10 -90 4 -36
13 -117 21 -180 38 -290 80 -522 150 -813 2 -9 6 -26 8 -36 29 -129 151 -419
234 -552 116 -190 280 -351 444 -438 58 -31 177 -75 184 -69 2 3 -16 31 -39
64 -106 147 -189 307 -231 446 -33 108 -41 158 -40 273 0 127 16 200 66 300
89 180 245 293 458 331 48 8 187 6 230 -4 l35 -8 -75 -38 c-273 -136 -406
-309 -415 -542 -12 -292 178 -644 554 -1025 116 -118 124 -129 101 -133 -33
-6 -348 0 -380 8 -14 3 -46 8 -72 11 -26 3 -53 7 -60 10 -7 2 -29 6 -50 9 -20
3 -56 12 -80 20 -23 7 -56 17 -73 21 -16 3 -43 12 -60 20 -16 7 -55 22 -85 34
-224 88 -488 296 -659 521 -219 287 -413 759 -446 1090 -5 48 -18 115 -42 220
-100 442 -355 848 -753 1199 -360 317 -907 614 -1415 767 -149 45 -163 56 -92
73 159 38 218 51 262 57 28 3 58 8 67 9 106 20 513 20 618 0 8 -2 43 -6 75
-10 33 -4 69 -9 80 -11 10 -2 37 -6 60 -10 22 -3 65 -12 95 -20 74 -19 73 -19
65 27 -17 98 -90 242 -198 389 -85 115 -355 386 -494 495 -88 69 -100 82 -86
92 16 12 178 12 253 -1 160 -26 233 -37 235 -34 2 2 -60 89 -138 193 -78 105
-173 233 -212 285 -38 52 -135 183 -214 290 -80 107 -223 301 -319 430 -96
129 -188 253 -204 275 -17 22 -101 137 -189 255 -87 118 -212 287 -278 375
-105 142 -240 324 -559 755 -51 69 -217 293 -370 499 -357 481 -464 626 -536
731 -140 201 -350 433 -782 864 -284 285 -364 361 -784 754 l-75 70 -11 -28
c-17 -41 -42 -160 -59 -290 -23 -177 -40 -327 -50 -440 -3 -36 -8 -85 -10
-110 -8 -73 -18 -210 -29 -395 -4 -60 -9 -135 -11 -165 -24 -319 -24 -902 0
-1090 2 -19 7 -53 10 -75 2 -22 7 -60 10 -85 3 -25 8 -56 10 -70 2 -14 7 -45
10 -70 3 -25 9 -70 15 -100 5 -30 11 -68 13 -85 3 -16 12 -73 22 -125 9 -52
18 -106 20 -120 6 -38 34 -202 39 -225 7 -33 38 -198 42 -225 3 -14 12 -59 20
-100 9 -41 18 -88 21 -105 4 -24 67 -329 89 -430 2 -11 6 -31 9 -45 3 -14 7
-34 9 -45 3 -11 12 -54 21 -95 9 -41 18 -84 21 -95 2 -11 22 -96 44 -190 22
-93 43 -181 46 -194 6 -31 60 -231 79 -296 37 -126 66 -274 89 -446 14 -103
15 -384 2 -442 -4 -16 -22 -91 -40 -166 -19 -76 -37 -153 -40 -172 -3 -19 -14
-77 -25 -129 -11 -52 -23 -115 -26 -140 -4 -25 -10 -63 -15 -85 -5 -22 -11
-69 -15 -105 -4 -36 -8 -67 -10 -70 -1 -3 -6 -41 -10 -84 -4 -43 -8 -87 -10
-98 -8 -38 -16 -237 -16 -363 0 -193 12 -308 45 -448 14 -61 26 -81 33 -59 13
35 95 144 153 203 118 119 255 178 430 184 262 10 557 -103 910 -349 47 -32
87 -61 90 -65 4 -5 74 -61 119 -95 11 -8 12 -2 7 39 -19 138 -91 352 -202 600
-10 22 -18 42 -19 45 -1 10 -171 347 -206 410 -20 36 -49 90 -66 120 -17 30
-48 86 -69 124 -21 37 -49 85 -61 107 -11 21 -31 56 -44 76 -20 34 -20 36 -2
18 11 -11 33 -31 49 -44 16 -13 60 -52 99 -85 38 -34 88 -77 110 -96 212 -184
420 -455 580 -755 26 -49 51 -94 55 -100 8 -11 256 -496 346 -675 28 -58 73
-154 98 -215 26 -60 51 -119 56 -130 55 -120 254 -733 337 -1035 49 -183 69
-257 118 -455 31 -121 63 -239 72 -263 22 -59 121 -237 196 -352 77 -119 59
-95 175 -235 115 -139 242 -264 362 -357 83 -63 230 -160 260 -170 9 -3 -7
-16 -45 -36 -429 -224 -771 -498 -940 -754 -41 -62 -118 -208 -110 -208 2 0
-3 -17 -11 -37 -9 -20 -18 -66 -20 -102 l-5 -66 67 -70 c73 -77 302 -320 354
-375 175 -189 274 -289 320 -324 111 -85 403 -256 755 -441 61 -32 146 -77
190 -100 85 -45 898 -452 1000 -500 202 -96 336 -252 405 -470 12 -38 23 -79
26 -90 2 -11 6 -31 9 -45 10 -47 13 -65 20 -140 10 -94 9 -255 -1 -271 -4 -7
-3 -9 4 -5 18 11 196 284 271 416 163 286 316 636 357 820 4 19 9 40 10 45 75
318 59 574 -53 840 -25 60 -126 267 -143 295 -6 8 -31 51 -56 95 -53 90 -167
273 -243 385 -27 41 -48 76 -47 78 2 1 151 -86 332 -194 181 -108 343 -205
359 -214 17 -10 136 -80 265 -157 129 -77 415 -245 635 -373 220 -128 445
-260 500 -293 209 -127 529 -346 706 -483 114 -89 241 -261 359 -487 187 -359
265 -447 383 -434 52 7 82 22 140 74 42 37 106 124 111 150 16 78 128 295 197
378 200 242 426 447 703 640 75 52 253 165 260 165 2 0 53 29 479 273 131 76
240 137 243 137 2 0 23 12 47 27 23 15 56 35 72 44 17 9 46 26 65 38 19 11 42
24 50 28 8 4 69 38 135 76 66 38 140 81 165 95 25 14 88 50 140 80 330 191
721 412 727 412 4 0 1 -6 -7 -13 -9 -7 -29 -30 -45 -52 -17 -22 -32 -42 -36
-45 -3 -3 -37 -50 -76 -105 -198 -282 -332 -576 -397 -866 -41 -189 -52 -341
-29 -424 122 -439 368 -977 625 -1366 29 -43 55 -79 58 -79 3 0 5 71 5 157 0
254 23 370 103 529 65 128 149 214 277 281 50 25 195 104 324 175 128 70 236
128 240 128 12 0 276 112 285 121 6 5 16 9 23 9 14 0 322 150 423 206 264 147
655 411 780 526 14 13 39 34 55 46 145 111 431 405 569 586 l60 77 -23 72
c-122 383 -459 751 -925 1011 -61 34 -129 70 -150 80 l-40 19 38 21 c222 124
457 325 613 526 57 73 153 208 153 214 0 2 20 37 43 78 132 223 229 484 288
780 11 55 47 194 80 307 33 113 65 224 71 246 6 22 42 130 80 240 38 110 71
207 73 215 13 50 181 465 256 630 43 97 198 406 246 492 106 189 308 505 389
608 7 8 50 62 96 120 77 97 307 338 388 406 57 48 150 115 150 109 0 -3 -35
-61 -78 -128 -296 -461 -489 -839 -576 -1127 -33 -110 -37 -129 -43 -224 l-6
-80 49 36 c313 228 537 349 776 419 124 36 162 41 278 41 231 -1 404 -99 551
-314 61 -89 62 -90 75 -66 30 57 69 394 67 583 0 65 -8 168 -19 240 -35 249
-60 393 -97 560 -21 94 -25 118 -37 195 -9 63 -11 83 -26 215 -11 102 -15 191
-19 445 -4 252 -1 286 41 485 9 38 18 81 20 94 3 12 12 53 20 90 9 36 18 75
20 86 2 11 28 127 59 258 30 130 57 247 59 260 3 12 8 33 11 47 3 14 8 36 11
49 3 14 7 28 10 33 3 4 7 18 9 30 3 12 15 60 29 107 51 183 66 241 96 376 17
77 35 158 40 180 10 41 34 164 45 225 16 93 54 330 59 370 3 25 8 55 10 67 3
12 7 48 11 80 3 32 8 72 10 88 3 17 8 57 11 90 3 33 7 78 9 100 20 204 19 192
31 410 15 259 9 939 -11 1165 -2 25 -7 79 -10 120 -7 89 -14 162 -20 210 -2
19 -7 60 -10 90 -4 30 -8 66 -10 80 -2 14 -6 45 -10 70 -3 25 -8 56 -10 70 -2
14 -7 45 -10 70 -9 61 -50 279 -70 365 -9 39 -17 76 -17 83 -1 6 -2 12 -3 12
-4 0 -89 -88 -649 -664 -143 -149 -363 -374 -488 -500 -248 -252 -249 -254
-381 -406 -49 -58 -113 -131 -141 -164 -28 -32 -156 -187 -284 -345 -129 -157
-241 -295 -250 -306 -10 -11 -51 -63 -92 -115 -41 -52 -77 -97 -80 -100 -3 -3
-59 -72 -123 -155 -65 -82 -124 -157 -130 -165 -7 -8 -26 -33 -42 -55 -17 -22
-35 -45 -41 -52 -6 -6 -40 -52 -75 -103 -35 -50 -78 -110 -95 -133 -30 -41
-264 -369 -294 -413 -8 -12 -29 -42 -46 -66 -17 -23 -91 -128 -165 -233 -75
-104 -247 -347 -384 -540 -136 -192 -325 -458 -418 -590 -94 -132 -225 -316
-292 -410 -67 -93 -135 -190 -152 -216 l-31 -45 71 19 c81 21 437 38 437 20 0
-16 -140 -129 -220 -178 -52 -31 -116 -97 -203 -210 -34 -44 -89 -107 -122
-140 -117 -118 -181 -217 -214 -330 -23 -78 -33 -162 -21 -170 4 -2 61 9 126
25 121 30 130 31 244 49 166 26 453 35 590 19 163 -20 245 -38 389 -84 24 -8
8 -14 -136 -55 -233 -67 -602 -223 -830 -350 -86 -48 -181 -114 -323 -224
-156 -121 -223 -168 -315 -221 -151 -87 -334 -337 -469 -644 -15 -36 -34 -78
-41 -95 -55 -125 -217 -619 -261 -794 -2 -9 -13 -52 -25 -96 -25 -100 -50
-195 -54 -215 -32 -152 -123 -375 -212 -522 -227 -372 -622 -664 -1003 -742
-41 -8 -95 -17 -120 -21 -25 -3 -63 -8 -85 -11 -51 -7 -447 -13 -458 -7 -5 3
39 53 97 112 317 321 385 400 464 534 86 147 124 271 125 407 1 235 -119 437
-380 639 -46 36 -83 68 -83 73 0 17 169 1 285 -26 6 -2 38 -9 72 -16 45 -10
79 -26 120 -57 238 -178 341 -400 309 -666 -23 -187 -148 -458 -294 -636 -34
-42 -35 -44 -12 -37 14 4 35 10 48 13 12 3 22 9 22 14 0 5 5 9 11 9 18 0 125
68 192 122 232 185 366 353 468 588 60 140 122 363 144 520 3 25 8 56 10 70 4
25 9 82 21 217 3 40 7 85 9 100 2 15 7 57 10 93 4 36 9 72 10 80 1 8 6 40 10
70 8 64 10 80 25 175 7 39 14 86 16 105 3 19 7 42 9 50 3 8 7 33 10 55 4 22 8
47 10 55 2 8 7 29 10 45 7 43 10 55 44 205 82 354 175 637 286 867 62 128 143
258 444 713 53 80 98 149 100 155 2 5 8 14 13 20 5 5 67 98 138 205 71 107
133 200 137 205 5 6 89 132 189 280 100 149 209 308 243 355 34 47 73 101 86
120 14 19 42 58 62 87 21 28 76 104 123 170 46 65 93 127 102 137 10 11 18 23
18 27 0 4 6 14 13 21 11 11 76 101 137 188 8 12 78 108 155 214 77 106 176
243 220 305 44 62 85 118 90 124 6 7 51 68 100 137 49 69 99 139 112 155 33
43 36 47 57 80 11 17 24 35 30 42 6 6 22 28 36 48 14 20 34 48 46 63 62 81
408 568 449 632 84 132 288 391 519 660 166 194 271 314 291 336 11 11 45 50
75 85 30 35 62 71 70 79 8 9 49 54 90 101 85 96 133 149 173 193 16 17 54 60
85 95 32 35 73 81 92 101 44 48 178 195 205 224 301 333 413 448 639 651 49
44 96 87 105 95 9 8 75 65 146 125 72 61 141 120 155 132 14 11 81 67 150 122
69 56 132 107 140 114 190 154 758 585 937 710 l52 37 58 -68 c88 -102 276
-341 323 -408 30 -43 135 -189 143 -199 47 -57 413 -613 549 -834 126 -205
159 -260 246 -406 52 -88 129 -218 170 -290 41 -71 84 -146 95 -165 53 -92
310 -556 357 -645 29 -55 61 -114 70 -131 35 -61 165 -309 323 -614 151 -293
315 -628 360 -735 98 -237 190 -481 289 -765 85 -246 150 -435 152 -445 1 -5
37 -116 78 -245 136 -418 213 -665 353 -1135 115 -388 155 -546 189 -760 9
-54 36 -209 41 -235 11 -55 16 -86 19 -110 2 -14 6 -41 10 -60 9 -50 14 -83
32 -195 8 -55 17 -111 20 -125 11 -62 34 -208 38 -240 3 -20 7 -47 10 -60 3
-14 8 -43 11 -65 3 -22 10 -67 15 -100 5 -33 11 -78 15 -100 3 -22 7 -47 10
-55 2 -8 6 -37 10 -65 3 -27 12 -88 20 -135 8 -47 17 -105 20 -130 6 -44 11
-78 20 -131 3 -15 7 -47 10 -70 3 -24 10 -69 15 -99 5 -30 14 -86 20 -125 5
-38 19 -131 30 -205 11 -74 22 -153 25 -175 3 -22 8 -51 10 -65 6 -30 10 -61
25 -165 6 -44 13 -91 16 -105 2 -14 6 -45 10 -70 3 -25 7 -52 9 -60 2 -8 7
-67 10 -130 3 -63 8 -153 11 -200 2 -47 7 -139 9 -205 3 -66 7 -163 10 -215 5
-99 11 -224 20 -470 3 -80 8 -188 10 -240 12 -271 18 -554 19 -905 1 -336 -3
-466 -18 -620 -2 -16 -7 -64 -11 -105 -4 -41 -9 -83 -10 -92 -2 -9 -6 -44 -10
-77 -3 -33 -8 -70 -10 -83 -3 -13 -7 -43 -10 -68 -9 -74 -16 -129 -30 -207 -2
-16 -7 -46 -9 -68 -3 -22 -8 -51 -11 -65 -3 -14 -8 -43 -11 -65 -2 -22 -7 -53
-10 -70 -3 -16 -7 -43 -10 -60 -5 -31 -20 -119 -29 -170 -13 -78 -16 -93 -25
-140 -5 -27 -12 -68 -16 -90 -3 -22 -10 -59 -15 -83 -5 -23 -12 -59 -15 -78
-8 -49 -12 -72 -18 -92 -3 -9 -7 -33 -10 -52 -4 -26 -86 -433 -111 -550 -2 -8
-15 -71 -29 -140 -15 -69 -31 -141 -36 -160 -5 -19 -12 -55 -15 -80 -29 -203
-177 -672 -436 -1385 -22 -60 -44 -119 -49 -130 -14 -37 -38 -99 -100 -265
-34 -91 -65 -174 -70 -185 -5 -11 -36 -90 -69 -175 -107 -281 -193 -494 -226
-565 -18 -38 -48 -104 -68 -145 -35 -77 -68 -148 -143 -308 -24 -52 -44 -95
-44 -97 0 -1 -22 -49 -49 -106 -27 -57 -71 -153 -99 -214 -28 -60 -73 -159
-101 -218 -28 -60 -51 -110 -51 -112 0 -1 -29 -64 -65 -140 -36 -75 -65 -139
-65 -142 0 -6 -144 -293 -260 -518 -150 -291 -641 -1270 -760 -1515 -68 -140
-161 -331 -207 -424 -67 -138 -84 -182 -89 -233 -10 -94 18 -113 116 -78 23 8
61 15 84 15 54 0 176 59 354 169 72 45 133 81 136 81 39 0 222 117 422 271
114 88 423 340 470 383 7 6 31 27 54 46 73 61 84 71 120 103 19 18 69 61 110
96 41 36 80 70 85 75 6 6 30 28 55 50 207 177 322 291 491 481 68 77 129 145
135 150 6 6 73 80 150 165 76 85 141 157 144 160 24 21 148 172 206 250 159
214 359 536 524 845 24 44 56 104 72 133 34 62 298 589 298 595 0 3 29 65 64
138 35 74 78 168 96 209 50 115 79 180 105 235 133 286 259 655 375 1109 29
109 53 206 55 215 2 9 19 88 38 176 36 160 82 384 92 440 3 17 8 45 11 64 3
18 7 41 9 50 11 60 35 192 39 224 7 46 17 104 21 126 4 24 15 92 20 129 5 32
11 69 19 127 3 17 8 53 11 80 4 28 16 104 27 170 25 155 26 162 33 215 40 335
50 569 50 1215 -1 462 -7 766 -20 980 -2 33 -6 119 -10 190 -12 255 -24 443
-40 650 -3 33 -7 96 -10 140 -3 44 -8 107 -11 140 -3 33 -7 103 -9 155 -7 149
-25 346 -40 440 -2 14 -7 50 -10 80 -3 30 -8 62 -10 70 -2 8 -7 38 -10 65 -3
28 -7 57 -10 65 -2 8 -6 36 -10 62 -3 26 -17 113 -30 194 -14 80 -28 160 -30
178 -3 17 -12 67 -20 111 -8 44 -17 96 -20 115 -3 19 -8 42 -10 50 -2 8 -6 31
-9 50 -3 19 -8 46 -11 60 -3 14 -7 34 -9 45 -4 19 -32 171 -43 225 -2 14 -13
70 -24 125 -11 55 -22 111 -25 125 -12 67 -55 269 -63 300 -5 19 -19 71 -31
115 -24 91 -119 443 -157 585 -14 52 -26 102 -28 110 -2 8 -31 116 -64 240
-141 522 -202 752 -206 770 -2 8 -14 56 -28 105 -14 50 -44 161 -67 248 -23
88 -62 216 -87 285 -41 116 -159 450 -269 762 -25 69 -54 152 -65 185 -11 33
-24 69 -29 80 -5 11 -27 72 -48 135 -38 111 -104 298 -217 615 -29 83 -70 197
-90 255 -29 81 -300 712 -565 1315 -10 22 -41 94 -70 160 -29 66 -60 138 -70
160 -10 22 -38 87 -63 145 -26 58 -191 396 -367 750 -331 663 -421 846 -509
1034 -56 118 -210 391 -359 636 -52 85 -102 169 -112 186 -10 18 -85 139 -167
270 -82 132 -159 259 -172 283 -47 93 -330 498 -370 531 -3 3 -25 30 -48 60
-23 30 -50 64 -60 75 -10 11 -52 61 -93 110 -69 84 -110 132 -135 159 -6 6
-60 67 -120 135 -111 125 -160 166 -580 481 -55 41 -106 81 -113 87 -27 26
-149 91 -202 109 -83 29 -262 26 -355 -4 -64 -21 -179 -70 -263 -111 -27 -13
-235 -170 -252 -190 -3 -3 -84 -73 -180 -156 -96 -82 -177 -152 -180 -155 -3
-3 -54 -48 -115 -100 -60 -52 -127 -110 -149 -130 -33 -31 -321 -345 -387
-424 -13 -16 -33 -38 -45 -50 -11 -12 -54 -59 -95 -106 -41 -47 -79 -89 -85
-95 -5 -5 -46 -50 -90 -100 -43 -49 -81 -92 -84 -95 -6 -6 -155 -173 -201
-224 -19 -21 -39 -44 -44 -50 -114 -124 -221 -251 -329 -390 -74 -94 -216
-274 -316 -401 -100 -126 -218 -277 -263 -335 -45 -58 -87 -112 -94 -120 -136
-164 -694 -891 -798 -1040 -77 -111 -144 -207 -150 -213 -5 -7 -28 -39 -51
-72 -22 -33 -121 -175 -220 -315 -99 -140 -202 -286 -228 -325 -27 -38 -91
-128 -141 -200 -51 -71 -147 -218 -215 -325 -67 -107 -137 -217 -155 -245
-281 -435 -416 -636 -506 -750 -34 -43 -107 -161 -177 -285 -11 -19 -37 -66
-59 -105 -22 -38 -109 -196 -193 -350 -154 -282 -177 -326 -265 -490 -43 -80
-286 -479 -399 -655 -23 -36 -53 -83 -66 -105 -28 -48 -126 -204 -186 -295
-104 -159 -233 -429 -323 -675 -28 -77 -63 -162 -76 -190 -27 -56 -70 -200
-80 -266 -4 -24 -10 -62 -15 -84 -5 -22 -11 -62 -15 -90 -4 -27 -9 -59 -10
-70 -2 -11 -6 -42 -9 -70 -3 -27 -8 -61 -11 -74 -2 -14 -7 -47 -10 -75 -3 -28
-8 -71 -11 -96 -7 -62 -12 -115 -19 -185 -3 -33 -8 -76 -10 -95 -2 -19 -7 -75
-10 -125 -4 -49 -8 -101 -10 -115 -4 -27 -17 -196 -19 -247 0 -18 -4 -29 -7
-25 -7 7 -67 189 -74 222 -2 8 -10 46 -19 83 -9 37 -18 85 -21 105 -3 20 -7
48 -9 62 -3 14 -7 59 -11 100 -4 41 -9 91 -11 110 -5 52 -5 316 1 390 18 234
52 445 100 625 34 125 41 148 58 186 8 19 27 66 42 104 15 39 33 84 40 100 8
17 25 58 39 92 15 35 37 86 50 115 13 29 51 114 84 188 150 339 201 444 289
591 44 74 225 379 402 679 178 300 332 557 342 572 10 15 19 30 19 32 0 3 24
45 54 93 29 49 106 178 172 288 65 110 168 272 229 360 61 88 156 225 210 304
55 79 116 167 135 195 20 28 74 106 120 174 99 142 183 264 261 377 31 44 85
123 121 175 36 52 79 115 97 140 17 25 59 86 93 135 34 50 76 110 93 135 40
57 285 412 379 548 168 244 207 296 660 882 27 36 66 86 85 111 20 25 47 60
61 79 14 18 90 117 170 220 80 103 156 202 170 220 14 18 72 94 130 169 58 75
203 262 322 416 119 154 229 294 244 310 16 17 75 82 131 145 56 63 118 133
138 155 60 67 142 159 162 181 10 11 106 119 215 240 258 288 258 288 258 297
0 7 -147 231 -175 265 -7 9 -48 62 -91 117 -42 54 -82 104 -88 111 -6 6 -31
35 -56 65 -54 67 -333 346 -415 415 -330 282 -709 519 -1090 683 -55 24 -113
49 -130 56 -61 27 -339 124 -357 125 -4 1 -27 8 -50 16 -120 42 -528 136 -688
159 -25 3 -56 8 -70 10 -61 9 -109 16 -155 20 -27 3 -61 7 -75 10 -14 2 -63 7
-110 11 -47 4 -101 8 -120 10 -43 5 -647 13 -652 9z m-9728 -678 c14 -3 50 -8
81 -12 31 -3 65 -7 75 -9 11 -2 42 -7 69 -10 28 -4 66 -11 85 -16 19 -5 49
-11 65 -13 55 -8 301 -76 411 -113 147 -50 365 -138 439 -178 66 -36 167 -97
175 -105 3 -4 12 -10 22 -16 27 -16 143 -98 148 -104 3 -3 23 -19 45 -35 42
-32 200 -164 246 -206 559 -521 966 -1101 1305 -1856 35 -80 76 -175 90 -212
20 -52 185 -537 183 -537 0 0 2 -7 5 -15 9 -28 97 -314 146 -475 44 -148 178
-610 185 -645 4 -16 30 -113 66 -247 22 -83 66 -262 75 -303 3 -14 14 -59 24
-100 26 -103 106 -472 115 -530 3 -19 8 -42 10 -50 2 -8 7 -31 10 -50 4 -19
11 -60 16 -90 15 -82 37 -220 44 -265 3 -23 7 -50 9 -60 2 -11 7 -45 10 -76 4
-31 9 -67 11 -79 2 -13 7 -55 10 -94 3 -39 8 -82 10 -96 4 -28 13 -184 20
-333 2 -54 6 -101 9 -105 2 -4 7 -32 11 -62 3 -30 8 -66 10 -80 5 -33 14 -114
20 -170 2 -25 7 -66 10 -92 21 -192 36 -364 50 -568 3 -47 8 -114 11 -150 2
-36 7 -112 10 -170 2 -58 7 -150 9 -205 24 -513 24 -1318 0 -1845 -5 -123 -15
-300 -20 -380 -3 -41 -7 -106 -10 -145 -8 -140 -16 -251 -20 -285 -2 -19 -6
-69 -10 -110 -3 -41 -8 -95 -10 -120 -2 -25 -7 -74 -10 -110 -4 -36 -8 -78
-10 -95 -2 -16 -6 -61 -10 -100 -4 -38 -8 -81 -10 -95 -2 -14 -7 -55 -10 -92
-4 -37 -10 -80 -15 -95 -7 -24 -9 -20 -10 27 -1 30 -3 66 -5 80 -1 14 -6 75
-10 135 -4 61 -8 124 -10 140 -2 17 -6 77 -10 135 -3 58 -8 116 -10 130 -2 14
-6 66 -10 115 -4 50 -8 108 -10 130 -3 22 -7 76 -10 120 -3 44 -7 98 -10 120
-2 22 -7 72 -10 110 -2 39 -7 86 -9 105 -3 19 -8 67 -11 105 -3 39 -7 90 -10
115 -9 98 -16 178 -21 235 -2 32 -6 71 -9 85 -2 14 -7 61 -11 105 -3 44 -7 87
-9 95 -2 8 -6 51 -10 95 -4 44 -8 90 -10 103 -2 13 -7 53 -10 90 -4 37 -8 78
-11 92 -2 14 -6 57 -9 95 -4 39 -8 77 -10 85 -2 8 -7 42 -10 75 -4 33 -8 71
-10 85 -2 14 -7 52 -10 85 -3 33 -8 71 -10 85 -3 14 -7 48 -10 75 -5 45 -9 79
-20 155 -2 14 -6 48 -10 75 -3 28 -13 97 -21 155 -20 138 -21 148 -29 195 -3
22 -8 54 -10 70 -2 17 -8 59 -14 95 -6 36 -13 83 -16 105 -13 83 -47 276 -81
455 -20 102 -38 196 -40 210 -42 228 -141 561 -274 925 -294 801 -467 1158
-749 1545 -194 266 -372 470 -744 853 -55 56 -79 87 -68 88 9 1 34 2 56 4 22
1 83 5 135 8 52 4 140 10 195 13 55 4 114 8 130 9 17 1 51 3 78 4 26 0 47 4
47 9 0 4 -40 59 -89 122 -104 133 -301 337 -451 466 -92 80 -293 237 -346 271
-11 7 -55 37 -99 66 -44 30 -132 84 -195 122 -161 95 -541 285 -570 285 -6 0
-10 4 -10 8 0 27 598 248 751 277 12 2 28 6 37 9 21 7 112 19 132 18 38 -1 41
7 14 50 -338 543 -835 986 -1417 1263 -289 137 -657 250 -944 289 -24 3 -62 9
-85 12 -47 7 -61 8 -188 20 -106 10 -504 10 -625 0 -102 -8 -149 -13 -255 -27
-41 -6 -91 -13 -110 -15 -19 -3 -46 -7 -60 -9 -14 -3 -38 -7 -55 -10 -27 -5
-233 -47 -295 -60 -14 -3 -41 -10 -60 -15 -84 -23 -75 -12 105 133 337 273
772 492 1195 605 63 17 126 33 140 36 14 3 61 12 105 21 44 9 99 18 121 21 23
3 53 7 65 9 13 3 60 8 104 11 44 3 82 8 84 10 6 5 491 -3 521 -9z m10525 -1
c17 -2 68 -10 115 -16 98 -13 270 -45 350 -67 30 -8 63 -16 73 -18 46 -10 223
-71 340 -117 148 -58 370 -169 507 -253 86 -53 288 -190 300 -204 3 -3 37 -32
75 -63 39 -31 83 -70 99 -87 l30 -31 -47 14 c-26 8 -47 12 -47 10 0 -2 -11 1
-25 6 -14 5 -36 12 -48 14 -12 2 -58 12 -102 21 -92 19 -90 19 -213 40 -91 15
-124 20 -227 30 -27 3 -61 7 -75 10 -141 25 -659 26 -862 1 -106 -14 -135 -18
-148 -21 -8 -2 -35 -7 -60 -10 -25 -4 -63 -10 -85 -15 -22 -5 -53 -11 -70 -14
-16 -3 -82 -19 -145 -36 -63 -17 -119 -32 -125 -33 -24 -7 -183 -61 -210 -72
-16 -7 -61 -25 -100 -40 -102 -41 -266 -121 -375 -184 -95 -54 -291 -179 -300
-191 -3 -4 -12 -11 -21 -16 -9 -5 -33 -22 -54 -39 -334 -263 -578 -523 -782
-837 -67 -103 -73 -118 -47 -114 14 2 81 -8 184 -27 129 -25 629 -205 740
-267 24 -13 24 -14 5 -20 -59 -17 -371 -170 -521 -256 -159 -91 -429 -274
-574 -391 -120 -96 -396 -359 -491 -468 -43 -50 -170 -217 -167 -221 2 -1 48
-5 103 -8 55 -4 129 -9 165 -11 36 -2 115 -7 175 -11 95 -6 141 -9 204 -13 8
-1 -29 -45 -82 -98 -52 -54 -119 -123 -147 -153 -132 -141 -158 -169 -195
-211 -22 -24 -65 -73 -95 -108 -30 -36 -60 -69 -65 -75 -12 -12 -145 -180
-191 -241 -186 -242 -353 -537 -530 -930 -41 -91 -244 -620 -244 -635 0 -4 -8
-25 -17 -46 -9 -22 -18 -43 -19 -49 -1 -5 -24 -71 -52 -145 -27 -74 -51 -144
-54 -155 -4 -11 -17 -58 -31 -105 -52 -174 -140 -558 -172 -750 -2 -14 -11
-65 -20 -115 -13 -74 -39 -227 -60 -355 -2 -14 -7 -45 -10 -70 -3 -25 -8 -52
-10 -60 -2 -8 -6 -37 -10 -65 -10 -86 -16 -129 -20 -145 -2 -8 -7 -40 -10 -70
-3 -30 -8 -66 -10 -80 -2 -14 -11 -81 -20 -150 -19 -152 -25 -197 -30 -230 -2
-14 -7 -54 -10 -90 -4 -36 -8 -72 -10 -80 -2 -8 -6 -44 -9 -80 -4 -36 -9 -76
-11 -90 -2 -14 -7 -54 -10 -90 -3 -36 -8 -76 -10 -90 -2 -14 -7 -54 -10 -90
-5 -59 -9 -99 -20 -185 -2 -16 -6 -66 -10 -110 -4 -44 -9 -87 -10 -96 -2 -9
-6 -52 -10 -95 -3 -43 -8 -95 -10 -114 -3 -19 -7 -66 -10 -105 -4 -38 -8 -86
-10 -105 -2 -19 -7 -71 -11 -115 -3 -44 -8 -88 -10 -97 -1 -10 -6 -60 -9 -110
-4 -51 -8 -106 -10 -123 -9 -99 -16 -179 -20 -245 -3 -41 -7 -97 -10 -125 -8
-81 -15 -174 -21 -260 -3 -44 -7 -105 -9 -135 -3 -30 -7 -93 -10 -140 -9 -137
-14 -182 -20 -188 -3 -3 -6 11 -6 31 -1 20 -2 40 -3 45 -2 4 -6 43 -10 87 -5
44 -10 87 -11 96 -2 9 -6 52 -10 95 -4 43 -9 86 -10 95 -2 8 -6 55 -10 105 -4
49 -9 100 -10 114 -2 14 -6 66 -10 115 -3 50 -8 108 -10 130 -3 22 -8 83 -10
135 -3 52 -7 118 -10 145 -2 28 -7 100 -11 160 -6 114 -7 137 -21 465 -10 259
-10 1228 0 1505 12 313 22 504 32 625 2 30 7 93 10 140 3 47 7 103 10 125 2
22 7 74 10 115 12 141 14 155 20 210 3 30 8 80 11 110 3 30 7 66 9 80 2 14 6
48 10 75 7 63 11 91 24 190 6 44 13 137 16 207 3 70 7 144 9 165 2 21 7 70 11
108 3 39 8 81 10 95 3 23 18 143 20 165 2 20 17 120 21 140 2 11 6 38 9 60 3
22 7 47 10 55 2 8 7 34 10 57 3 24 26 145 51 270 25 126 47 237 49 248 3 11 9
38 14 60 12 47 71 299 76 323 31 150 206 788 307 1122 27 91 58 192 68 225 96
327 262 810 339 990 242 563 561 1082 928 1507 108 125 332 352 443 451 193
171 474 371 627 447 213 105 644 248 858 285 17 2 39 7 50 9 11 2 56 9 100 16
44 7 88 14 97 15 9 2 57 7 105 10 48 4 90 9 92 11 6 6 476 -3 516 -10z m-8418
-14505 c131 -44 335 -88 658 -142 33 -6 134 -12 225 -14 245 -5 418 -40 530
-108 30 -18 124 -78 209 -132 142 -92 159 -106 212 -178 104 -139 184 -313
205 -446 10 -60 7 -173 -5 -220 l-12 -43 -107 104 c-269 264 -526 418 -819
492 -314 80 -598 200 -838 354 -153 99 -331 270 -384 370 -12 23 -12 23 11 8
13 -8 65 -29 115 -45z m5784 2 c-110 -161 -313 -324 -562 -451 -100 -51 -305
-141 -334 -146 -5 -2 -55 -17 -110 -35 -55 -18 -151 -46 -214 -62 -277 -72
-544 -235 -805 -493 -53 -53 -99 -96 -101 -96 -8 0 -18 70 -20 144 -2 78 13
187 33 236 6 14 20 50 32 80 22 54 94 184 114 207 6 6 27 34 46 62 36 51 65
72 310 228 207 132 319 162 628 168 87 1 175 6 197 9 22 4 67 12 100 18 33 5
74 12 90 15 207 32 508 108 583 148 26 13 48 24 50 25 1 0 -15 -26 -37 -57z"/>
<path d="M25170 19205 c-43 -110 -287 -807 -380 -1085 -142 -427 -163 -513
-177 -725 -12 -182 -6 -497 11 -640 2 -16 7 -64 11 -105 4 -41 9 -83 10 -92 2
-9 6 -43 10 -75 3 -32 8 -69 10 -83 3 -25 18 -111 20 -120 1 -3 5 -32 10 -65
5 -33 9 -62 10 -65 1 -3 5 -29 10 -57 5 -34 12 -53 21 -53 8 0 14 4 14 9 0 13
150 207 205 265 11 12 37 42 59 66 157 182 582 584 666 631 52 29 66 38 175
114 289 201 508 451 639 730 37 79 90 226 99 275 3 14 8 43 12 64 6 31 5 38
-6 34 -151 -57 -273 -78 -429 -72 -69 2 -134 5 -145 7 -11 2 -38 7 -60 11 -59
11 -239 73 -294 101 -67 33 -104 67 -156 139 -107 150 -196 357 -290 676 -41
139 -44 144 -55 115z"/>
<path d="M9866 19183 c-8 -31 -62 -186 -76 -218 -5 -11 -32 -78 -60 -150 -28
-71 -57 -143 -65 -160 -7 -16 -20 -47 -28 -67 -26 -61 -100 -170 -153 -221
-105 -103 -246 -173 -409 -201 -146 -25 -406 -7 -564 40 -29 8 -55 13 -58 11
-13 -13 102 -359 145 -437 112 -202 430 -518 772 -769 69 -50 139 -101 155
-113 94 -69 500 -496 714 -750 40 -49 76 -88 80 -88 5 0 20 48 35 108 34 133
32 127 40 186 4 27 9 52 10 55 2 3 7 40 11 81 4 41 8 77 10 80 17 29 27 795
12 959 -8 88 -2 69 -294 956 -137 414 -250 725 -264 725 -4 0 -10 -12 -13 -27z"/>
<path d="M24495 14798 c-104 -14 -199 -74 -259 -165 -15 -22 -43 -53 -63 -69
-20 -16 -44 -36 -52 -45 -34 -34 -313 -260 -451 -366 -139 -105 -364 -267
-480 -344 -114 -76 -206 -136 -220 -143 -16 -7 -20 -10 -115 -67 -162 -99
-446 -241 -632 -317 -39 -16 -118 -44 -175 -61 -303 -95 -446 -166 -568 -285
-85 -83 -115 -148 -114 -251 1 -92 25 -157 92 -247 33 -45 288 -304 403 -410
20 -18 55 -50 78 -71 124 -115 275 -244 356 -306 22 -17 45 -34 50 -39 64 -51
189 -119 215 -117 8 1 22 3 31 3 52 6 314 334 609 765 40 59 77 107 81 107 4
0 -3 -28 -16 -62 -13 -35 -42 -115 -63 -178 -215 -624 -557 -1558 -651 -1775
-5 -11 -48 -117 -97 -235 -213 -523 -390 -879 -510 -1028 -15 -18 -25 -33 -23
-35 2 -1 33 -17 69 -35 373 -186 754 -465 1081 -792 110 -110 166 -171 298
-325 217 -254 473 -669 622 -1007 38 -86 44 -106 54 -178 3 -19 8 -46 11 -60
11 -47 14 -65 18 -95 3 -17 7 -42 10 -55 6 -24 9 -40 22 -120 4 -19 7 -39 8
-45 2 -5 9 -45 16 -88 l14 -78 72 78 c71 77 72 78 93 59 32 -29 64 -140 76
-266 14 -151 28 -408 29 -532 0 -69 2 -78 18 -78 59 0 217 118 274 205 23 34
41 52 50 48 65 -25 129 -335 89 -429 -29 -66 -112 -414 -99 -414 41 0 244 103
300 153 25 21 30 17 38 -33 16 -103 21 -180 21 -325 0 -139 -4 -202 -20 -315
-8 -58 -36 -171 -58 -240 -99 -299 -357 -791 -675 -1285 -29 -44 -52 -88 -52
-97 0 -9 11 -30 24 -45 22 -26 31 -28 99 -30 74 -2 186 19 286 53 107 36 651
331 869 471 45 29 85 53 87 53 7 0 190 125 193 133 2 4 8 7 13 7 6 0 15 5 22
10 7 6 55 43 107 82 136 104 204 166 278 258 21 24 46 54 57 65 61 60 159 181
293 360 26 35 128 195 173 270 97 164 229 446 284 605 1 3 5 12 8 20 19 47 62
193 93 318 19 78 42 161 50 184 8 23 25 87 39 142 22 95 27 117 40 199 3 17 8
39 10 47 2 8 7 39 10 69 4 30 8 61 10 70 8 46 19 149 31 316 16 198 9 789 -11
965 -3 33 -6 56 -21 208 -5 48 -19 157 -40 302 -7 53 -23 152 -29 180 -3 14
-8 45 -11 70 -3 25 -8 47 -9 50 -2 3 -6 24 -9 46 -12 75 -75 362 -117 526 -17
68 -32 130 -34 138 -20 95 -181 620 -255 830 -193 550 -503 1277 -672 1580
-47 85 -173 322 -282 532 -95 183 -362 717 -409 818 -19 41 -55 118 -80 170
-201 426 -378 880 -416 1070 -6 30 -14 66 -16 80 -3 14 -8 41 -11 60 -21 133
-106 426 -155 535 -12 28 -23 55 -24 60 -5 20 -104 182 -120 195 -23 19 -91
27 -160 18z"/>
<path d="M10439 14788 c-107 -88 -245 -451 -314 -823 -17 -93 -21 -110 -40
-185 -37 -143 -175 -508 -269 -713 -20 -42 -36 -79 -36 -82 0 -3 -23 -53 -51
-112 -27 -60 -73 -157 -102 -218 -65 -139 -386 -781 -470 -940 -34 -66 -96
-183 -136 -260 -41 -77 -91 -171 -112 -208 -52 -91 -149 -295 -241 -502 -22
-49 -49 -109 -59 -133 -25 -54 -178 -426 -208 -507 -13 -33 -27 -69 -32 -80
-34 -76 -195 -547 -267 -780 -88 -283 -187 -670 -237 -925 -2 -8 -10 -49 -18
-90 -14 -64 -46 -251 -63 -355 -2 -16 -6 -41 -9 -55 -2 -14 -7 -49 -10 -79 -4
-30 -8 -61 -10 -70 -1 -9 -6 -45 -9 -81 -4 -36 -9 -76 -11 -90 -2 -14 -7 -61
-10 -105 -4 -44 -8 -92 -10 -106 -23 -188 -23 -843 0 -1025 2 -17 7 -60 10
-95 11 -114 36 -283 55 -369 5 -25 12 -56 14 -70 7 -42 36 -151 61 -230 13
-41 26 -86 29 -100 2 -14 9 -45 15 -70 7 -25 14 -54 16 -66 9 -39 63 -209 93
-290 76 -208 200 -461 318 -650 37 -60 70 -111 73 -114 4 -3 28 -38 56 -79
166 -248 447 -554 645 -702 366 -272 1119 -701 1345 -764 201 -57 335 -41 335
41 0 14 -30 71 -69 132 -67 105 -166 265 -202 329 -11 18 -27 48 -38 65 -141
246 -237 430 -325 625 -45 101 -104 266 -112 312 -3 14 -7 34 -10 43 -6 20
-12 52 -20 98 -3 19 -8 38 -10 41 -6 11 -18 199 -18 299 0 94 12 272 19 294 3
6 7 24 9 40 7 39 11 41 34 18 30 -30 106 -73 211 -118 53 -23 97 -41 98 -40 1
1 -2 19 -8 40 -6 21 -12 47 -14 56 -16 81 -71 292 -85 323 -31 70 -4 280 49
385 31 61 45 59 92 -9 59 -84 214 -199 269 -199 19 0 20 6 21 128 1 70 2 143
4 162 1 19 5 85 9 145 4 61 9 121 11 135 2 14 7 54 10 90 9 82 39 181 65 212
l20 23 74 -77 74 -77 12 62 c7 34 14 72 16 85 2 12 6 34 9 50 3 15 8 40 10 56
2 15 7 35 9 45 3 9 8 34 11 56 2 22 11 74 19 115 9 41 17 91 20 111 9 60 148
360 235 507 17 29 31 55 31 57 0 12 204 322 267 404 175 232 383 461 582 641
46 41 88 80 95 86 83 77 373 293 501 373 39 24 86 54 105 67 52 32 114 66 218
119 l94 47 -30 32 c-83 87 -230 364 -405 766 -8 19 -27 61 -41 93 -14 32 -26
60 -26 62 0 4 -102 256 -130 320 -4 11 -25 63 -45 115 -20 52 -41 106 -46 119
-5 13 -30 78 -55 145 -25 66 -49 130 -54 141 -11 24 -29 72 -166 450 -57 160
-109 298 -114 307 -6 10 -10 26 -10 36 0 10 -3 22 -7 26 -4 3 -8 12 -9 19 -1
7 -32 93 -67 192 -36 99 -87 248 -115 330 -28 83 -54 159 -58 170 -4 11 31
-36 77 -105 88 -129 339 -478 361 -502 7 -7 31 -38 54 -68 61 -82 164 -189
197 -207 27 -13 34 -13 76 2 104 39 308 198 617 480 123 112 388 375 425 421
145 182 159 340 42 489 -98 125 -283 223 -623 330 -283 90 -686 295 -1065 544
-55 36 -104 68 -110 70 -5 2 -12 7 -15 11 -3 3 -34 26 -70 50 -85 57 -425 311
-515 384 -38 31 -77 62 -85 69 -170 137 -268 229 -355 331 -25 30 -64 59 -105
79 -56 28 -77 32 -155 35 -64 2 -95 0 -106 -10z"/>
</g>
</svg>
